<?xml version="1.0" encoding="UTF-8"?>
<svg width="53px" height="50px" viewBox="0 0 53 50" version="1.1" xmlns="http://www.w3.org/2000/svg" xmlns:xlink="http://www.w3.org/1999/xlink">
    <!-- Generator: Sketch 43.2 (39069) - http://www.bohemiancoding.com/sketch -->
    <title>Education icon</title>
    <desc>Created with Sketch.</desc>
    <defs>
        <polygon id="path-1" points="0 50 53 50 53 0 0 0"></polygon>
    </defs>
    <g id="fullcycle-v2" stroke="none" stroke-width="1" fill="none" fill-rule="evenodd" opacity="0.5">
        <g id="Why-Poland" transform="translate(-979.000000, -990.000000)">
            <g id="trinity" transform="translate(111.000000, 990.000000)">
                <g id="Education-icon" transform="translate(868.000000, 0.000000)">
                    <g>
                        <mask id="mask-2" fill="white">
                            <use xlink:href="#path-1"></use>
                        </mask>
                        <g id="Clip-7"></g>
                        <g id="Group-9" mask="url(#mask-2)" fill="#404040">
                            <path d="M51.4234679,13.2078496 C50.9401524,13.2078496 50.7199511,13.5995747 50.7199511,14.082506 L50.7199511,14.95665 L39.9421056,19.2760025 L39.9421056,17.1098573 L51.9289445,12.266582 C52.2557237,12.1319505 52.469392,11.8127291 52.469392,11.4589211 C52.469392,11.1047288 52.2557237,10.7864041 51.9299693,10.6508759 L26.5683925,0.156792535 C26.3542119,0.0687888817 26.1145396,0.0687888817 25.900359,0.156792535 L0.540447471,10.6508759 C0.213155864,10.7864041 0,11.1047288 0,11.4589211 C0,11.8132415 0.213155864,12.1324629 0.540447471,12.2670944 L25.900359,22.7606653 C26.0074493,22.8052436 26.1210727,22.8272765 26.234696,22.8272765 C26.3483193,22.8272765 26.4618146,22.8052436 26.5689049,22.7606653 L35.73845,18.9662604 C36.1852575,18.7825672 36.4298697,18.5752619 36.2456641,18.1284544 C36.0610742,17.6821593 35.6829214,17.6406973 35.2370106,17.8243906 L26.234696,21.3846902 L2.20503467,11.4589211 L26.234696,1.57085918 L49.9182845,11.4589211 L39.2676912,16.0677996 L29.6513386,12.4770712 C29.7018094,12.2949152 29.7322968,11.6541432 29.7322968,11.4589211 C29.7322968,9.98783818 28.1961399,8.83546429 26.234696,8.83546429 C24.273124,8.83546429 22.7369671,9.98783818 22.7369671,11.4589211 C22.7369671,12.9296197 24.273124,14.082506 26.234696,14.082506 C27.1098648,14.082506 27.8908812,13.8433461 28.4979399,13.4590507 L38.7615981,17.184923 L38.7615981,38.728909 C37.7462896,39.0916838 36.728267,40.0529348 36.728267,41.191346 C36.728267,42.6379621 37.9056201,43.8148028 39.3517238,43.8148028 C40.7983398,43.8148028 41.9753086,42.6379621 41.9753086,41.191346 C41.9753086,40.0529348 40.9574141,39.0916838 39.9421056,38.728909 L39.9421056,33.7656054 C42.4525795,31.8701323 42.9687355,29.198215 43.0078056,29.0861288 C43.0393178,28.9945384 43.0558425,28.8974397 43.0558425,28.8004692 L43.0558425,22.6787711 C43.0558425,22.1963523 42.8277706,21.9527963 42.3444551,21.9527963 C41.860499,21.9527963 41.6567614,22.3448577 41.6567614,22.8272765 L41.6567614,28.7873143 C41.5056052,29.1580313 41.3387183,30.5856661 39.9421056,32.0325005 L39.9421056,20.5814541 L51.7435413,15.8157829 C52.0713453,15.6811514 52.1206676,15.3109704 52.1206676,14.95665 L52.1206676,14.082506 C52.1206676,13.5995747 51.9069115,13.2078496 51.4234679,13.2078496 Z M26.234911,13.0670934 C24.2708993,13.0670934 23.5920007,12.1151273 23.5920007,11.4587289 C23.5920007,10.8025662 24.2708993,9.72940775 26.234911,9.72940775 C28.1989227,9.72940775 28.8427217,10.8025662 28.8427217,11.4587289 C28.8427217,12.1151273 28.1989227,13.0670934 26.234911,13.0670934 Z M39.3585187,42.570309 C38.6027125,42.570309 37.9886324,41.9548237 37.9886324,41.1996198 C37.9886324,40.4444158 38.6027125,39.8297335 39.3585187,39.8297335 C40.1153286,39.8297335 40.7292079,40.4444158 40.7292079,41.1996198 C40.7292079,41.9548237 40.1153286,42.570309 39.3585187,42.570309 Z" id="Fill-8"></path>
                        </g>
                        <g id="Group-4" mask="url(#mask-2)" fill="#404040">
                            <g transform="translate(0.000000, 13.194143)">
                                <path d="M36.9894161,30.9453066 C36.5205756,30.8266874 36.1626651,31.1263058 36.0460955,31.5941214 L35.1718234,35.0918503 C35.0538447,35.5617155 35.2230662,36.0226178 35.6919066,36.1396998 C35.7624889,36.1582741 35.8344802,36.1662162 35.9045501,36.1662162 C36.195988,36.1662162 36.3950878,35.8451897 36.4947484,35.4483406 L37.3694048,31.9502274 C37.4864868,31.481387 37.4582565,31.062901 36.9894161,30.9453066 Z" id="Fill-1"></path>
                                <path d="M40.2217244,31.6450913 C39.7531262,31.5582452 39.3954007,31.7776085 39.2788913,32.1201161 L38.405071,34.6809516 C38.2871533,35.0249599 38.4562873,35.362406 38.9248854,35.4481267 C38.9954312,35.4617257 39.0673854,35.4675405 39.137419,35.4675405 C39.4287063,35.4675405 39.6277032,35.2325033 39.7273123,34.9419533 L40.6015167,32.3808364 C40.7185382,32.0375785 40.6903225,31.7311872 40.2217244,31.6450913 Z" id="Fill-1-Copy" transform="translate(39.514268, 33.546800) rotate(-19.000000) translate(-39.514268, -33.546800) "></path>
                                <path d="M43.5104234,30.7070326 C43.041583,30.5884134 42.6836724,30.8880317 42.5671028,31.3558473 L41.6928307,34.8535762 C41.574852,35.3234414 41.7440735,35.7843438 42.2129139,35.9014258 C42.2834962,35.92 42.3554875,35.9279421 42.4255574,35.9279421 C42.7169954,35.9279421 42.9160951,35.6069156 43.0157558,35.2100665 L43.8904122,31.7119533 C44.0074942,31.2431129 43.9792638,30.824627 43.5104234,30.7070326 Z" id="Fill-1-Copy-2" transform="translate(42.802602, 33.304490) rotate(-30.000000) translate(-42.802602, -33.304490) "></path>
                                <path d="M26.234696,12.6220163 C26.3483193,12.6220163 26.4618146,12.6004957 26.5683925,12.5560456 L36.1878195,8.57538541 C36.6341146,8.39079551 36.5681052,8.1531833 36.3833872,7.7072725 C36.1987973,7.26046502 35.9631348,7.28483224 35.5182488,7.46788496 L26.234696,11.3103268 L1.39115397,1.09428622 L1.39115397,0.804015068 C1.39115397,0.321083813 1.19902829,0.130725496 0.71660943,0.130725496 C0.233806274,0.130725496 0,0.405431677 0,0.888362932 L0,1.37737793 C0,1.73169831 0.213155864,1.9273307 0.540447471,2.0619622 L25.900359,12.5560456 C26.0069369,12.6004957 26.1210727,12.6220163 26.234696,12.6220163 Z" id="Fill-3"></path>
                            </g>
                        </g>
                        <path d="M36.5325132,35.0820664 C36.3188449,34.6492217 35.9011351,34.6727988 35.4667532,34.8874919 C33.8059564,35.7086031 30.8150385,36.663321 26.8925351,36.7934691 L26.8925351,28.9484622 C26.8925351,28.4660434 26.7174992,28.0743182 26.234696,28.0743182 C25.7517647,28.0743182 25.628536,28.4660434 25.628536,28.9484622 L25.628536,36.7859113 C14.7701406,36.4396611 10.5907576,29.8616763 10.0869463,28.7668186 L10.0869463,22.8272765 C10.0869463,22.3443453 9.95652295,21.952492 9.47371979,21.952492 C8.99130093,21.952492 8.74528296,22.3443453 8.74528296,22.8272765 L8.74528296,28.5836716 C8.74528296,28.694733 8.76629111,28.6631869 8.80728262,28.7668186 C8.95933552,29.1456058 12.6812367,38.0608754 26.234696,38.0608754 C30.9717776,38.0608754 34.2913216,36.9120883 36.2413647,35.9482753 C36.6752342,35.7340947 36.7475905,35.5149112 36.5325132,35.0820664 Z" id="Fill-5" fill="#404040" mask="url(#mask-2)"></path>
                    </g>
                </g>
            </g>
        </g>
    </g>
</svg>