<?xml version="1.0" encoding="utf-8"?>
<!-- Generator: Adobe Illustrator 22.1.0, SVG Export Plug-In . SVG Version: 6.00 Build 0)  -->
<svg version="1.1" id="Guides" xmlns="http://www.w3.org/2000/svg" xmlns:xlink="http://www.w3.org/1999/xlink" x="0px" y="0px"
	 viewBox="0 0 1600 306" style="enable-background:new 0 0 1600 306;" xml:space="preserve">
<style type="text/css">
	.st0{fill:#F17925;}
	.st1{fill:#0E2A3B;}
</style>
<title>ful_cycle_logo</title>
<g id="Objects">
	<path class="st0" d="M403.8,101.7h69.3v13.9h-52.7v42.7h48.7v13.7h-48.7v58.1h-16.6V101.7z"/>
	<path class="st0" d="M532.4,101.7v76.1c0,28.8,12.8,41,30,41c19.1,0,31.3-12.6,31.3-41v-76.1h16.8v75c0,39.5-20.8,55.7-48.7,55.7
		c-26.3,0-46.2-15.1-46.2-55v-75.8H532.4z"/>
	<path class="st0" d="M658.4,101.7H675v114.7h54.9v13.9h-71.6V101.7z"/>
	<path class="st0" d="M767.5,101.7h16.6v114.7h54.9v13.9h-71.6V101.7z"/>
	<path class="st1" d="M959.1,226.1c-6.1,3.1-18.3,6.1-34,6.1c-36.3,0-63.5-22.9-63.5-65.1c0-40.3,27.3-67.5,67.2-67.5
		c16,0,26.1,3.5,30.5,5.7l-4,13.5c-8.2-3.7-17-5.5-26-5.3c-30.1,0-50.2,19.3-50.2,53c0,31.5,18.1,51.7,49.4,51.7
		c10.1,0,20.4-2.1,27.1-5.3L959.1,226.1z"/>
	<path class="st1" d="M1028.2,230.3v-54.6l-40.6-74h18.9l18.1,35.5c5,9.7,8.8,17.6,12.8,26.5h0.4c3.5-8.4,8-16.8,13-26.5l18.5-35.5
		h18.9l-43.1,73.9v54.8H1028.2z"/>
	<path class="st1" d="M1204.9,226.1c-6.1,3.1-18.3,6.1-34,6.1c-36.2,0-63.5-22.9-63.5-65.1c0-40.3,27.3-67.5,67.2-67.5
		c16,0,26.1,3.5,30.5,5.7l-4,13.5c-8.2-3.7-17-5.5-26-5.3c-30.1,0-50.2,19.3-50.2,53c0,31.5,18.1,51.7,49.4,51.7
		c10.1,0,20.4-2.1,27.1-5.3L1204.9,226.1z"/>
	<path class="st1" d="M1244.7,101.7h16.6v114.7h54.9v13.9h-71.5V101.7z"/>
	<path class="st1" d="M1420.5,170h-50v46.4h55.7v14h-72.3V101.7h69.4v13.9h-52.9v40.7h50V170z"/>
	<path class="st0" d="M229.2,101.4c-43.2-21.1-81.1,9.4-81.1,54.4c0,66.6,75.4,104.5,128.6,66.3c-10.1,4.8-21.4,6.8-32.5,5.7
		C166.7,220.1,179.8,112.8,229.2,101.4z"/>
	<path class="st1" d="M171.4,98.2c21.8-13.2,61.4-14.1,85.3,24.4c35.7,57.5-8,104.3-53.4,75.1c25.7,42.4,107,32.4,107-41.9
		C310.4,83.1,222.3,47.4,171.4,98.2z"/>
</g>
</svg>
