<svg xmlns="http://www.w3.org/2000/svg" width="45.864" height="42.643" viewBox="27.999 24.357 45.864 42.643" enable-background="new 27.999 24.357 45.864 42.643"><title>love ico</title><desc>Created with Sketch.</desc><g><g><g><g><g transform="translate(13 7)"><linearGradient id="a" x1="-103.8" x2="-103.122" y1="188.515" y2="187.665" gradientUnits="userSpaceOnUse" gradientTransform="matrix(45.864 0 0 -42.643 4784.58 8054.148)"><stop offset="0" stop-color="#4E8FE1"/><stop offset="1" stop-color="#7C57A4"/></linearGradient><path fill="url(#a)" d="M60.8 30.07c-.68-7.37-5.9-12.7-12.42-12.7-4.35 0-8.34 2.33-10.57 6.08-2.2-3.8-6.03-6.1-10.3-6.1-6.54 0-11.76 5.35-12.42 12.72-.06.33-.27 2.04.38 4.83.96 4.04 3.15 7.7 6.36 10.6L37.8 60l16.25-14.5c3.2-2.9 5.4-6.57 6.35-10.6.66-2.8.44-4.5.4-4.83zm-2.12 4.43c-.87 3.68-2.88 7.03-5.8 9.7L37.8 57.62 23 44.2c-2.94-2.67-4.95-6.02-5.82-9.7-.62-2.65-.36-4.14-.36-4.15v-.08c.58-6.46 5.07-11.15 10.67-11.15 4.12 0 7.76 2.54 9.5 6.63l.8 1.93.82-1.93c1.7-4.03 5.53-6.63 9.76-6.63 5.6 0 10.08 4.7 10.67 11.23 0 0 .26 1.5-.37 4.15zM29.1 22.72c-4.85 0-8.8 3.96-8.8 8.82 0 .5.4.88.87.88.5 0 .9-.4.9-.88 0-3.9 3.15-7.06 7.05-7.06.48 0 .87-.4.87-.88 0-.5-.4-.88-.9-.88z"/></g></g></g></g></g></svg>