<?xml version="1.0" encoding="UTF-8"?>
<svg width="44px" height="50px" viewBox="0 0 44 50" version="1.1" xmlns="http://www.w3.org/2000/svg" xmlns:xlink="http://www.w3.org/1999/xlink">
    <!-- Generator: Sketch 43.2 (39069) - http://www.bohemiancoding.com/sketch -->
    <title>startup icon</title>
    <desc>Created with Sketch.</desc>
    <defs></defs>
    <g id="full-cycle-v2" stroke="none" stroke-width="1" fill="none" fill-rule="evenodd" opacity="0.5">
        <g id="Why-Poland" transform="translate(-111.000000, -990.000000)" fill="#404040">
            <g id="trinity" transform="translate(111.000000, 990.000000)">
                <g id="startup-icon">
                    <g>
                        <path d="M21.8029556,44.8266582 C21.2923507,44.8266582 21.0689207,45.2446429 21.0689207,45.7548469 L21.0689207,48.1429847 L12.8773272,48.1429847 C12.3667223,48.1429847 11.9484093,48.2981168 11.9484093,48.8083208 C11.9484093,49.3185249 12.3667223,49.4404376 12.8773272,49.4404376 L30.7280734,49.4404376 C31.2386783,49.4404376 31.657502,49.3185249 31.657502,48.8083208 C31.657502,48.2981168 31.2386783,48.1429847 30.7280734,48.1429847 L22.525292,48.1429847 L22.525292,45.7548469 C22.525292,45.2346939 22.3135605,44.8266582 21.8029556,44.8266582 Z" id="Fill-2"></path>
                        <path d="M2.23644933,42.2960459 L41.3589945,42.2960459 C42.5946583,42.2960459 43.5954438,41.2960459 43.5954438,40.0614796 L43.5954438,13.1531888 C43.5954438,11.9184949 42.5946583,10.9184949 41.3589945,10.9184949 L30.4113708,10.9184949 C29.9007659,10.9184949 29.4477449,11.2583135 29.4477449,11.7685176 C29.4477449,12.2787217 29.9007659,12.3878827 30.4113708,12.3878827 L41.6626498,12.3878827 C41.8771038,12.3878827 42.2448068,12.8199679 42.2448068,13.0342536 L42.2448068,40.0818878 C42.2448068,40.2961735 41.5734485,40.8018584 41.3589945,40.8018584 L2.51427317,40.8018584 C2.29981912,40.8018584 1.62513762,40.2961735 1.62513762,40.0818878 L1.62513762,35.1797037 L38.755165,35.1797037 C39.2657698,35.1797037 39.6180688,35.0610969 39.6180688,34.5508929 C39.6180688,34.0406888 39.2657698,33.7446429 38.755165,33.7446429 L33.7096427,33.7446429 C33.3217107,31.0610969 31.1901998,29.3222892 28.4022972,29.3222892 C27.8916924,29.3222892 27.6351614,29.632908 27.6351614,30.143112 C27.6351614,30.6533161 28.0832679,30.8469388 28.5938727,30.8469388 C30.3605656,30.8469388 31.8414474,32.0919643 32.2089552,33.7446429 L27.5609403,33.7446429 C27.2033892,30.8982143 25.065464,28.6326531 22.2161612,28.2654337 L22.2161612,21.8266582 C22.2161612,21.3164541 22.088639,20.8979592 21.5780342,20.8979592 C21.0674293,20.8979592 20.9390879,21.3164541 20.9390879,21.8266582 L20.9390879,28.3063776 C18.2019905,28.7651786 16.0636292,30.9794643 15.7060782,33.7446429 L11.1619501,33.7446429 C11.529458,32.0919643 13.0104674,30.8469388 14.7771603,30.8469388 C15.2877651,30.8469388 15.7060782,30.6533161 15.7060782,30.143112 C15.7060782,29.632908 15.4942378,29.2918128 14.9836329,29.2918128 C12.1957303,29.2918128 10.1122669,31.0610969 9.72382422,33.7446429 L1.3787608,33.7446429 C1.24613119,33.6734694 1.09256677,33.6225765 0.929428515,33.6225765 C0.418823645,33.6225765 0,34.0406888 0,34.5508929 L0,40.0714286 C0.00995679497,41.2960459 1.01125295,42.2960459 2.23644933,42.2960459 Z M21.7106638,30.051148 C23.9066477,30.051148 25.7446976,31.6431122 26.1226728,33.7346939 L17.3097604,33.7346939 C17.6771406,31.6431122 19.5052337,30.051148 21.7106638,30.051148 Z" id="Fill-3"></path>
                        <path d="M0.769744527,31.7242347 C1.2803494,31.7242347 1.47588131,31.30625 1.47588131,30.7960459 L1.47588131,13.3380752 C1.47588131,13.1237895 2.03246269,12.3095644 2.24691673,12.3095644 L13.2249214,12.3095644 C13.7355263,12.3095644 14.1538394,12.1078246 14.1538394,11.5976206 C14.1538394,11.0874165 13.7355263,10.8980867 13.2249214,10.8980867 L2.23644933,10.8980867 C1.00078555,10.8980867 0,11.8980867 0,13.1327806 L0,30.7855867 C0.00995679497,31.316199 0.259139656,31.7242347 0.769744527,31.7242347 Z" id="Fill-4"></path>
                        <path d="M22.7932738,38.1427296 C22.7932738,38.7345663 22.3135605,39.2144133 21.7211312,39.2144133 C21.1288295,39.2144133 20.6491163,38.7345663 20.6491163,38.1427296 C20.6491163,37.5512755 21.1288295,37.0714286 21.7211312,37.0714286 C22.3135605,37.0714286 22.7932738,37.5512755 22.7932738,38.1427296 Z" id="Fill-5"></path>
                        <path d="M13.5210723,23.2755102 C13.5210723,23.7857143 13.9393853,24.2042092 14.4499902,24.2042092 L16.3493126,24.2042092 L16.3493126,26.3466837 C16.3493126,26.8568878 16.7991555,27.2755102 17.3097604,27.2755102 C17.8203653,27.2755102 17.9629517,26.8568878 17.9629517,26.3466837 L17.9629517,24.2042092 L18.3309701,24.2042092 C18.841575,24.2042092 19.2598881,23.9388104 19.2598881,23.4286063 C19.2598881,22.9184022 18.841575,22.6714216 18.3309701,22.6714216 L15.0002683,22.6714216 L15.0002683,21.3164541 C15.0002683,20.9691327 15.1025169,20.6327806 15.3070142,20.3468112 L16.95272,17.9487245 C17.3506088,17.3778061 17.5650628,16.7042092 17.5650628,16.0001276 L17.5650628,7.96938776 C17.5650628,7.21403061 17.8407895,6.47959184 18.3309701,5.90816327 L21.7211312,1.71707111 L25.1984607,5.89821429 C25.6991088,6.47959184 25.9743248,7.21403061 25.9743248,7.96938776 L25.9743248,16.0510204 C25.9743248,16.69375 26.1583979,17.3265306 26.5053539,17.877551 L28.0680601,20.3368622 C28.2416657,20.6123724 28.333447,20.9183673 28.333447,21.2446429 L28.333447,22.6714216 L25.0909957,22.6714216 C24.5803908,22.6714216 24.1619501,22.9184022 24.1619501,23.4286063 C24.1619501,23.9084532 24.5861656,24.2042092 25.2765338,24.183801 L25.2765338,26.3367347 C25.2765338,26.8469388 25.5606245,27.2654337 26.0712294,27.2654337 C26.5818342,27.2654337 26.8371367,26.8469388 26.8371367,26.3367347 L26.8371367,24.19375 L28.8187942,24.19375 C29.3293991,24.19375 29.7477121,23.7752551 29.7477121,23.265051 L29.7477121,21.2446429 C29.7477121,20.5715561 29.5538099,19.9183673 29.1962588,19.3468112 L27.6339356,16.8875 C27.4704144,16.632398 27.3887176,16.3469388 27.3887176,16.0510204 L27.3887176,7.97933673 C27.3887176,6.77563776 26.9498527,5.6122449 26.1635212,4.69387755 L22.4257659,0.357142857 C22.2521603,0.152933673 21.9968578,0.0408163265 21.7211312,0.0408163265 C21.4553614,0.0408163265 21.1901021,0.163392857 21.0166241,0.367219388 L17.3097604,4.70395408 C16.5333857,5.6122449 16.1044776,6.77563776 16.1044776,7.96938776 L16.1044776,16.0100765 C16.1044776,16.3265306 16.0126964,16.6428571 15.828751,16.8979592 L14.1538394,19.2960459 C13.7355263,19.8979592 13.5210723,20.5919643 13.5210723,21.3264031 L13.5210723,23.2755102 Z" id="Fill-6"></path>
                    </g>
                </g>
            </g>
        </g>
    </g>
</svg>