<svg xmlns="http://www.w3.org/2000/svg" width="42.123" height="42.074" viewBox="30 24.926 42.123 42.074" enable-background="new 30 24.926 42.123 42.074"><title>globe ico</title><desc>Created with Sketch.</desc><g><g><g><g><g transform="translate(13 7)"><linearGradient id="a" x1="-103.344" x2="-102.665" y1="188.222" y2="187.492" gradientUnits="userSpaceOnUse" gradientTransform="matrix(42.122 0 0 -42.074 4376.908 7943.015)"><stop offset="0" stop-color="#25C8DA"/><stop offset="1" stop-color="#4C91E0"/></linearGradient><path fill="url(#a)" d="M38.06 17.93C26.43 17.93 17 27.35 17 38.96 17 50.58 26.43 60 38.06 60c11.63 0 21.06-9.42 21.06-21.04 0-11.6-9.43-21.03-21.06-21.03zm-2.7 1.6c-1.9 2-3.5 4.25-4.77 6.72-1.7-.7-3.24-1.6-4.65-2.72 2.67-2.1 5.9-3.5 9.42-4zm-10.5 4.93c1.54 1.25 3.26 2.28 5.13 3.06-1.5 3.3-2.36 6.92-2.45 10.74h-9.1c.18-5.47 2.62-10.36 6.4-13.8zm-6.42 15.2h9.1c.1 3.88 1 7.55 2.5 10.88-1.8.8-3.48 1.84-4.98 3.1-3.9-3.45-6.42-8.4-6.62-13.98zm7.73 14.9c1.36-1.1 2.86-2.04 4.5-2.75 1.24 2.43 2.82 4.64 4.7 6.6-3.43-.48-6.57-1.84-9.2-3.84zm11.2 3.8c-2.18-2.02-4-4.4-5.4-7.07 1.7-.6 3.5-.97 5.4-1.06v8.13zm0-9.54c-2.1.1-4.14.5-6.03 1.2-1.45-3.17-2.3-6.67-2.4-10.36h8.42v9.16zm0-10.56h-8.42c.1-3.65.93-7.1 2.35-10.25 1.9.66 3.94 1.04 6.06 1.1v9.16zm0-10.55c-1.9-.06-3.74-.4-5.46-.96 1.4-2.7 3.26-5.13 5.46-7.2v8.17zm20.3 10.56h-9.1c-.1-3.82-.97-7.44-2.46-10.73 1.88-.77 3.62-1.82 5.17-3.07 3.78 3.44 6.22 8.33 6.4 13.8zm-7.5-14.73c-1.42 1.1-2.98 2.04-4.68 2.74-1.3-2.5-2.95-4.77-4.9-6.75 3.6.46 6.87 1.9 9.57 4zm-11.4-3.85c2.17 2.03 4 4.42 5.4 7.07-1.7.56-3.52.9-5.4.96V19.7zm0 9.43c2.1-.06 4.12-.44 6.02-1.08 1.43 3.13 2.27 6.6 2.37 10.24h-8.4V29.1zm0 10.56h8.4c-.1 3.63-.93 7.07-2.35 10.2-1.9-.64-3.94-1-6.05-1.06v-9.14zm0 18.58V50.2c1.88.06 3.7.38 5.42.93-1.4 2.67-3.25 5.07-5.44 7.1zm1.83.17c1.97-2 3.62-4.28 4.92-6.8 1.7.7 3.27 1.64 4.7 2.76-2.73 2.14-6.02 3.58-9.62 4.05zm10.7-4.96c-1.55-1.27-3.3-2.32-5.17-3.1 1.48-3.28 2.35-6.88 2.44-10.68h9.1c-.18 5.46-2.6 10.34-6.36 13.78z"/></g></g></g></g></g></svg>