<?xml version="1.0" encoding="UTF-8"?>
<svg width="39px" height="48px" viewBox="0 0 39 48" version="1.1" xmlns="http://www.w3.org/2000/svg" xmlns:xlink="http://www.w3.org/1999/xlink">
    <!-- Generator: Sketch 43.2 (39069) - http://www.bohemiancoding.com/sketch -->
    <title>Global Companies Icon</title>
    <desc>Created with Sketch.</desc>
    <defs>
        <polygon id="path-1" points="2.70400382e-18 1.33226763e-15 0 50 40 50 40 8.89115972e-15 1.80266921e-18 8.89115972e-15"></polygon>
    </defs>
    <g id="full-cycle-v2" stroke="none" stroke-width="1" fill="none" fill-rule="evenodd" opacity="0.5">
        <g id="Why-Poland" transform="translate(-545.000000, -992.000000)">
            <g id="trinity" transform="translate(111.000000, 990.000000)">
                <g id="Global-Companies-Icon" transform="translate(434.000000, 0.000000)">
                    <g>
                        <mask id="mask-2" fill="white">
                            <use xlink:href="#path-1"></use>
                        </mask>
                        <g id="Clip-2"></g>
                        <g id="earth-globe" mask="url(#mask-2)" fill="#404040">
                            <g transform="translate(0.943396, 2.830189)" id="Fill-1">
                                <path d="M33.109829,45.5476939 L32.778476,45.5476939 C32.4233094,43.8407208 30.8797547,42.5527853 29.0347731,42.5527853 L22.4128073,42.5527853 L22.4128073,40.9812069 C24.9299184,40.896476 27.473772,40.378232 29.933705,39.3799291 C30.1206482,39.3039333 30.2693877,39.1581811 30.3470685,38.9748677 C30.4246219,38.79118 30.4246219,38.5849057 30.3470685,38.4017171 L29.9570092,37.47941 C29.7959171,37.0971848 29.3486798,36.915868 28.9586205,37.0743486 C28.569198,37.2322053 28.3836556,37.6704602 28.545257,38.0526854 L28.6373278,38.2700659 C26.5912677,39.0139263 24.492614,39.4087551 22.4128073,39.4837526 L22.4128073,39.2474044 C22.4128073,38.8339822 22.071012,38.4986772 21.6487343,38.4986772 C21.2269661,38.4986772 20.8846614,38.8339822 20.8846614,39.2474044 L20.8846614,39.4813817 C13.2786969,39.1865079 6.15881023,34.657083 3.05973024,27.3257961 C-1.08791257,17.5133523 3.47856957,6.25761206 13.2483887,1.864705 L13.3404595,2.08208545 C13.5020609,2.46418588 13.9487889,2.6460018 14.3388482,2.487646 C14.7287801,2.32916542 14.9138131,1.89103524 14.7522117,1.50930917 L14.3626618,0.587002096 C14.2010603,0.204901667 13.7543323,0.0235849057 13.3642731,0.181441549 C2.33602578,4.65820605 -2.92003223,17.0921933 1.64797807,27.8990716 C4.9904153,35.8065039 12.6787723,40.6853349 20.8846614,40.9808326 L20.8846614,42.5527853 L14.2626956,42.5527853 C12.417714,42.5527853 10.8741593,43.8407208 10.5193747,45.5476939 L10.1876397,45.5476939 C9.76587141,45.5476939 9.42356671,45.8826245 9.42356671,46.2964211 C9.42356671,46.7098433 9.76587141,47.0451482 10.1876397,47.0451482 L33.109829,47.0451482 C33.5321067,47.0451482 33.873902,46.7098433 33.873902,46.2964211 C33.873902,45.8826245 33.5321067,45.5476939 33.109829,45.5476939 Z M14.2626956,44.0502396 L29.0347731,44.0502396 C30.0311243,44.0502396 30.880264,44.6761755 31.1956988,45.5476939 L12.1017698,45.5476939 C12.417714,44.6761755 13.2668538,44.0502396 14.2626956,44.0502396 Z"></path>
                            </g>
                        </g>
                        <path d="M22.1664829,5.66037736 C13.0507139,5.66037736 5.66037736,13.0507139 5.66037736,22.1664829 C5.66037736,31.2889088 13.0507139,38.6792453 22.1664829,38.6792453 C31.2889088,38.6792453 38.6792453,31.2889088 38.6792453,22.1664829 C38.6792453,13.0507139 31.2889088,5.66037736 22.1664829,5.66037736 Z M37.5355717,21.5989141 L30.6976337,21.5989141 C30.6363389,19.0715711 30.1844677,16.6596905 29.3890602,14.4488 C30.9257075,13.8087679 32.3511689,12.9577675 33.6483387,11.9442645 C35.9533097,14.5329022 37.4015784,17.8955655 37.5355717,21.5989141 Z M21.5376192,37.5298699 C19.6446066,35.9533097 18.0523663,33.9049217 16.8877644,31.5272522 C18.3802224,31.0597009 19.9667608,30.8031179 21.5989141,30.7532267 L21.5989141,37.5355717 C21.5761067,37.5355717 21.5604266,37.5355717 21.5376192,37.5298699 Z M22.7963016,6.8040509 C24.9458973,8.59728126 26.7049165,10.9977581 27.8909004,13.7916623 C26.264449,14.3490177 24.5382153,14.6725974 22.7407086,14.7281904 L22.7407086,6.8040509 L22.7963016,6.8040509 Z M24.6950161,6.9993391 C27.8467111,7.52248341 30.6691245,8.99213405 32.8686113,11.1189224 C31.6712238,12.0383449 30.3683522,12.8123704 28.9599964,13.3968096 C27.9194096,10.9407397 26.465439,8.76406023 24.6950161,6.9993391 Z M21.5989141,6.8040509 L21.5989141,14.7281904 C19.7999819,14.6668956 18.0737482,14.3490177 16.4487223,13.7916623 C17.6347061,10.9977581 19.3880235,8.59728126 21.5376192,6.8040509 L21.5989141,6.8040509 Z M15.3796263,13.4025114 C13.969845,12.8123704 12.6669734,12.0383449 11.4710113,11.1246242 C13.6704981,8.99213405 16.4929116,7.52248341 19.6389047,6.9993391 C17.8741836,8.76406023 16.420213,10.9407397 15.3796263,13.4025114 Z M16.0196584,14.8450783 C17.7729758,15.4523248 19.6503084,15.8086901 21.5989141,15.8685595 L21.5989141,21.5989141 L14.7837834,21.5989141 C14.8450783,19.2098409 15.2684403,16.9276773 16.0196584,14.8450783 Z M21.5989141,22.7407086 L21.5989141,29.6114322 C19.7999819,29.6670252 18.06377,29.9563938 16.420213,30.48524 C15.4352193,28.1360797 14.8507801,25.5132309 14.7837834,22.7407086 L21.5989141,22.7407086 Z M19.6389047,37.3402835 C16.8207677,36.8670304 14.2606391,35.6425591 12.1780401,33.8607324 C13.3027291,33.0810051 14.5157967,32.4181656 15.8129665,31.9164032 C16.8050876,33.9833221 18.1079593,35.8093381 19.6389047,37.3402835 Z M22.7407086,37.5355717 L22.7407086,30.7532267 C24.3714363,30.8031179 25.9536984,31.0597009 27.4461564,31.5272522 C26.2815545,33.9049217 24.6950161,35.9533097 22.8020034,37.5355717 L22.7407086,37.5355717 Z M28.5252307,31.9164032 C29.8238259,32.4181656 31.0368935,33.0810051 32.1615825,33.8607324 C30.0789835,35.6425591 27.5174295,36.8670304 24.6950161,37.3402835 C26.2316634,35.8093381 27.5288332,33.9833221 28.5252307,31.9164032 Z M27.9137078,30.48524 C26.2758527,29.9563938 24.5382153,29.6670252 22.7407086,29.6114322 L22.7407086,22.7407086 L29.5558392,22.7407086 C29.4831407,25.5132309 28.9044034,28.1360797 27.9137078,30.48524 Z M22.7407086,21.5989141 L22.7407086,15.8685595 C24.6893142,15.8086901 26.5595195,15.4566012 28.3199642,14.8450783 C29.0711824,16.9333791 29.4945444,19.2098409 29.5558392,21.5989141 L22.7407086,21.5989141 Z M10.691284,11.9442645 C11.9884538,12.9577675 13.4139151,13.8087679 14.9505624,14.4488 C14.1537295,16.6596905 13.7032837,19.0715711 13.6419889,21.5989141 L6.8040509,21.5989141 C6.93804427,17.8955655 8.38061113,14.5329022 10.691284,11.9442645 Z M6.8040509,22.7407086 L13.6419889,22.7407086 C13.7089856,25.6529261 14.321934,28.402641 15.3568189,30.8758164 C13.9085502,31.44315 12.5614892,32.1900917 11.3199124,33.0810051 C8.64147056,30.4139669 6.9551498,26.7719132 6.8040509,22.7407086 Z M33.0197102,33.0810051 C31.7781334,32.1900917 30.429647,31.4374482 28.9828038,30.8758164 C30.0176887,28.402641 30.6249352,25.6529261 30.6976337,22.7407086 L37.5355717,22.7407086 C37.3844728,26.7719132 35.6981521,30.4139669 33.0197102,33.0810051 Z" id="the-world" fill="#404040" mask="url(#mask-2)" transform="translate(22.169811, 22.169811) rotate(-23.000000) translate(-22.169811, -22.169811) "></path>
                    </g>
                </g>
            </g>
        </g>
    </g>
</svg>