<svg xmlns="http://www.w3.org/2000/svg" width="40" height="43.199" viewBox="31 23.8 40 43.199" enable-background="new 31 23.8 40 43.199"><title>idea ico</title><desc>Created with Sketch.</desc><g><g><g><g><g transform="translate(13 7)"><linearGradient id="a" x1="-103.066" x2="-102.291" y1="188.524" y2="187.673" gradientUnits="userSpaceOnUse" gradientTransform="matrix(40 0 0 -43.199 4145.5 8162.916)"><stop offset="0" stop-color="#28E87E"/><stop offset="1" stop-color="#35D4E5"/></linearGradient><path fill="url(#a)" d="M38 23.2c-7.5 0-13.6 6.1-13.6 13.6 0 5.7 3.5 10.73 8.8 12.72v7.28c0 .44.36.8.8.8h.8v1.6c0 .44.36.8.8.8h4.8c.44 0 .8-.35.8-.8v-1.6h.8c.44 0 .8-.36.8-.8v-7.28c5.3-2 8.8-7.03 8.8-12.72 0-7.5-6.1-13.6-13.6-13.6zM40.4 56c-.44 0-.8.36-.8.8v1.6h-3.2v-1.6c0-.44-.36-.8-.8-.8h-.8v-4h6.4v4h-.8zm1.35-7.8c-.33.1-.55.4-.55.75v1.45h-6.4v-1.45c0-.34-.22-.65-.55-.76C29.32 46.56 26 42 26 36.8c0-6.62 5.38-12 12-12s12 5.38 12 12c0 5.2-3.32 9.77-8.25 11.4zM38 21.6c.44 0 .8-.36.8-.8v-3.2c0-.44-.36-.8-.8-.8s-.8.36-.8.8v3.2c0 .44.36.8.8.8zM57.2 36H54c-.44 0-.8.36-.8.8 0 .44.36.8.8.8h3.2c.44 0 .8-.36.8-.8 0-.44-.36-.8-.8-.8zM22 36h-3.2c-.44 0-.8.36-.8.8 0 .44.36.8.8.8H22c.44 0 .8-.36.8-.8 0-.44-.36-.8-.8-.8zm29-13.34l-2.25 2.26c-.3.3-.3.82 0 1.13.16.16.36.23.56.23.22 0 .42-.07.58-.23l2.26-2.26c.32-.32.32-.83 0-1.14-.3-.32-.82-.3-1.13 0zm-24.88 24.9l-2.26 2.25c-.32.32-.32.83 0 1.14.15.16.36.23.56.23.2 0 .4-.07.57-.23l2.25-2.26c.3-.3.3-.82 0-1.13-.3-.3-.82-.3-1.13 0zm23.76 0c-.3-.32-.82-.32-1.13 0-.3.3-.3.8 0 1.12L51 50.94c.17.16.37.24.58.24.2 0 .4-.08.56-.24.32-.3.32-.8 0-1.13l-2.26-2.25zm-23.76-21.5c.16.15.36.22.57.22.2 0 .4-.07.55-.23.3-.3.3-.82 0-1.13L25 22.66c-.32-.32-.83-.32-1.14 0-.32.3-.32.82 0 1.13l2.26 2.25zM38 27.2c-5.3 0-9.6 4.3-9.6 9.6 0 .44.36.8.8.8.44 0 .8-.36.8-.8 0-4.4 3.6-8 8-8 .44 0 .8-.36.8-.8 0-.44-.36-.8-.8-.8z"/></g></g></g></g></g></svg>