<?xml version="1.0" encoding="UTF-8"?>
<svg width="2560px" height="1311px" viewBox="0 0 2560 1311" version="1.1" xmlns="http://www.w3.org/2000/svg" xmlns:xlink="http://www.w3.org/1999/xlink">
    <!-- Generator: Sketch 46.2 (44496) - http://www.bohemiancoding.com/sketch -->
    <title>Map Copy</title>
    <desc>Created with Sketch.</desc>
    <defs>
        <rect id="path-1" x="255" y="131" width="2560" height="1311"></rect>
        <polygon id="path-3" points="1.82520258e-18 1.33226763e-15 0 34 27 34 27 6.47231425e-15 1.21680172e-18 6.47231425e-15"></polygon>
        <polygon id="path-5" points="1.82520258e-18 1.33226763e-15 0 34 27 34 27 6.47231425e-15 1.21680172e-18 6.47231425e-15"></polygon>
    </defs>
    <g id="full-cycle-v2" stroke="none" stroke-width="1" fill="none" fill-rule="evenodd">
        <g id="Artboard">
            <g id="map1-copy-2" transform="translate(-255.000000, -131.000000)">
                <g id="Map-Copy">
                    <g id="Group-7"></g>
                    <g id="Group">
                        <g id="2">
                            <mask id="mask-2" fill="white">
                                <use xlink:href="#path-1"></use>
                            </mask>
                            <use id="Rectangle" fill-opacity="0" fill="#D8D8D8" xlink:href="#path-1"></use>
                            <g id="azimo" mask="url(#mask-2)">
                                <g transform="translate(2012.025094, 947.141340)" id="Startup">
                                    <g transform="translate(109.209536, 141.364379)">
                                        <ellipse id="Oval" fill="#FFFFFF" cx="25.6963614" cy="25.7026144" rx="25.6963614" ry="25.7026144"></ellipse>
                                        <g id="startup-icon" opacity="0.5" transform="translate(10.706817, 8.567538)" fill="#404040">
                                            <g>
                                                <path d="M14.8656516,30.4821276 C14.5175119,30.4821276 14.3651732,30.7663571 14.3651732,31.1132959 L14.3651732,32.7372296 L8.7799958,32.7372296 C8.43185612,32.7372296 8.14664268,32.8427194 8.14664268,33.1896582 C8.14664268,33.536597 8.43185612,33.6194975 8.7799958,33.6194975 L20.9509592,33.6194975 C21.2990989,33.6194975 21.5846604,33.536597 21.5846604,33.1896582 C21.5846604,32.8427194 21.2990989,32.7372296 20.9509592,32.7372296 L15.3581536,32.7372296 L15.3581536,31.1132959 C15.3581536,30.7595918 15.2137912,30.4821276 14.8656516,30.4821276 Z" id="Fill-2"></path>
                                                <path d="M1.52485182,28.7613112 L28.1993144,28.7613112 C29.0418125,28.7613112 29.7241663,28.0813112 29.7241663,27.2418061 L29.7241663,8.94416837 C29.7241663,8.10457653 29.0418125,7.42457653 28.1993144,7.42457653 L20.7350255,7.42457653 C20.3868858,7.42457653 20.0780079,7.65565319 20.0780079,8.00259196 C20.0780079,8.34953074 20.3868858,8.4237602 20.7350255,8.4237602 L28.4063521,8.4237602 C28.5525708,8.4237602 28.8032774,8.71757814 28.8032774,8.86329243 L28.8032774,27.2556837 C28.8032774,27.401398 28.3455331,27.7452637 28.1993144,27.7452637 L1.71427716,27.7452637 C1.56805849,27.7452637 1.10804838,27.401398 1.10804838,27.2556837 L1.10804838,23.9221985 L26.4239761,23.9221985 C26.7721158,23.9221985 27.0123196,23.8415459 27.0123196,23.4946071 C27.0123196,23.1476684 26.7721158,22.9463571 26.4239761,22.9463571 L22.9838473,22.9463571 C22.7193482,21.1215459 21.2660453,19.9391567 19.3652027,19.9391567 C19.017063,19.9391567 18.8421555,20.1503774 18.8421555,20.4973162 C18.8421555,20.844255 19.1476826,20.9759184 19.4958223,20.9759184 C20.7003856,20.9759184 21.7100778,21.8225357 21.9606513,22.9463571 L18.7915502,22.9463571 C18.5477654,21.0107857 17.0900891,19.4702041 15.1473827,19.2204949 L15.1473827,14.8421276 C15.1473827,14.4951888 15.0604357,14.2106122 14.712296,14.2106122 C14.3641563,14.2106122 14.2766508,14.4951888 14.2766508,14.8421276 L14.2766508,19.2483367 C12.4104481,19.5603214 10.9524745,21.0660357 10.7086897,22.9463571 L7.61042053,22.9463571 C7.86099407,21.8225357 8.87077323,20.9759184 10.0753365,20.9759184 C10.4234762,20.9759184 10.7086897,20.844255 10.7086897,20.4973162 C10.7086897,20.1503774 10.564253,19.9184327 10.2161133,19.9184327 C8.31527066,19.9184327 6.89472742,21.1215459 6.62988015,22.9463571 L0.940064183,22.9463571 C0.8496349,22.8979592 0.74493189,22.863352 0.63370126,22.863352 C0.285561576,22.863352 0,23.1476684 0,23.4946071 L0,27.2485714 C0.00678872384,28.0813112 0.689490645,28.7613112 1.52485182,28.7613112 Z M14.8027253,20.4347806 C16.2999871,20.4347806 17.5532029,21.5173163 17.8109133,22.9395918 L11.8021094,22.9395918 C12.0525959,21.5173163 13.299023,20.4347806 14.8027253,20.4347806 Z" id="Fill-3"></path>
                                                <path d="M0.524825814,21.5724796 C0.872965498,21.5724796 1.00628271,21.28825 1.00628271,20.9413112 L1.00628271,9.06989112 C1.00628271,8.92417683 1.38577001,8.37050378 1.53198868,8.37050378 L9.01699189,8.37050378 C9.36513158,8.37050378 9.65034502,8.23332076 9.65034502,7.88638198 C9.65034502,7.53944321 9.36513158,7.41069898 9.01699189,7.41069898 L1.52485182,7.41069898 C0.682353781,7.41069898 0,8.09069898 0,8.93029082 L0,20.934199 C0.00678872384,21.2950153 0.176686129,21.5724796 0.524825814,21.5724796 Z" id="Fill-4"></path>
                                                <path d="M15.5408685,25.9370561 C15.5408685,26.3395051 15.2137912,26.665801 14.8098622,26.665801 C14.4060201,26.665801 14.0789429,26.3395051 14.0789429,25.9370561 C14.0789429,25.5348673 14.4060201,25.2085714 14.8098622,25.2085714 C15.2137912,25.2085714 15.5408685,25.5348673 15.5408685,25.9370561 Z" id="Fill-5"></path>
                                                <path d="M9.21891291,15.8273469 C9.21891291,16.1742857 9.50412635,16.4588622 9.85226603,16.4588622 L11.1472586,16.4588622 L11.1472586,17.9157449 C11.1472586,18.2626837 11.4539697,18.5473469 11.8021094,18.5473469 C12.1502491,18.5473469 12.2474671,18.2626837 12.2474671,17.9157449 L12.2474671,16.4588622 L12.4983887,16.4588622 C12.8465284,16.4588622 13.1317419,16.2783911 13.1317419,15.9314523 C13.1317419,15.5845135 12.8465284,15.4165667 12.4983887,15.4165667 L10.2274556,15.4165667 L10.2274556,14.4951888 C10.2274556,14.2590102 10.2971706,14.0302908 10.4366006,13.8358316 L11.5586727,12.2051327 C11.8299605,11.8169082 11.9761792,11.3588622 11.9761792,10.8800867 L11.9761792,5.41918367 C11.9761792,4.90554082 12.1641746,4.40612245 12.4983887,4.01755102 L14.8098622,1.16760835 L17.1807687,4.01078571 C17.5221196,4.40612245 17.7097669,4.90554082 17.7097669,5.41918367 L17.7097669,10.9146939 C17.7097669,11.35175 17.8352713,11.7820408 18.0718322,12.1567347 L19.1373137,13.8290663 C19.2556812,14.0164133 19.3182593,14.2244898 19.3182593,14.4463571 L19.3182593,15.4165667 L17.1074971,15.4165667 C16.7593574,15.4165667 16.4740569,15.5845135 16.4740569,15.9314523 C16.4740569,16.2577482 16.7632948,16.4588622 17.2340003,16.4449847 L17.2340003,17.9089796 C17.2340003,18.2559184 17.4276985,18.5404949 17.7758382,18.5404949 C18.1239779,18.5404949 18.2980477,18.2559184 18.2980477,17.9089796 L18.2980477,16.45175 L19.6491779,16.45175 C19.9973175,16.45175 20.282531,16.1671735 20.282531,15.8202347 L20.282531,14.4463571 C20.282531,13.9886582 20.1503249,13.5444898 19.9065401,13.1558316 L18.8413197,11.4835 C18.729828,11.3100306 18.6741256,11.1159184 18.6741256,10.9146939 L18.6741256,5.42594898 C18.6741256,4.60743367 18.3748996,3.81632653 17.8387645,3.19183673 L15.2902949,0.242857143 C15.1719274,0.103994898 14.9978576,0.027755102 14.8098622,0.027755102 C14.6286555,0.027755102 14.4477969,0.111107143 14.3295164,0.249709184 L11.8021094,3.19868878 C11.272763,3.81632653 10.9803256,4.60743367 10.9803256,5.41918367 L10.9803256,10.886852 C10.9803256,11.1020408 10.9177475,11.3171429 10.7923302,11.4906122 L9.65034502,13.1213112 C9.36513158,13.5306122 9.21891291,14.0025357 9.21891291,14.5019541 L9.21891291,15.8273469 Z" id="Fill-6"></path>
                                            </g>
                                        </g>
                                    </g>
                                </g>
                            </g>
                            <g id="startup-weekend" mask="url(#mask-2)">
                                <g transform="translate(1825.726474, 650.276144)" id="Startup">
                                    <g transform="translate(109.209536, 141.364379)">
                                        <ellipse id="Oval" fill="#FFFFFF" cx="25.6963614" cy="25.7026144" rx="25.6963614" ry="25.7026144"></ellipse>
                                        <g id="startup-icon" opacity="0.5" transform="translate(10.706817, 8.567538)" fill="#404040">
                                            <g>
                                                <path d="M14.8656516,30.4821276 C14.5175119,30.4821276 14.3651732,30.7663571 14.3651732,31.1132959 L14.3651732,32.7372296 L8.7799958,32.7372296 C8.43185612,32.7372296 8.14664268,32.8427194 8.14664268,33.1896582 C8.14664268,33.536597 8.43185612,33.6194975 8.7799958,33.6194975 L20.9509592,33.6194975 C21.2990989,33.6194975 21.5846604,33.536597 21.5846604,33.1896582 C21.5846604,32.8427194 21.2990989,32.7372296 20.9509592,32.7372296 L15.3581536,32.7372296 L15.3581536,31.1132959 C15.3581536,30.7595918 15.2137912,30.4821276 14.8656516,30.4821276 Z" id="Fill-2"></path>
                                                <path d="M1.52485182,28.7613112 L28.1993144,28.7613112 C29.0418125,28.7613112 29.7241663,28.0813112 29.7241663,27.2418061 L29.7241663,8.94416837 C29.7241663,8.10457653 29.0418125,7.42457653 28.1993144,7.42457653 L20.7350255,7.42457653 C20.3868858,7.42457653 20.0780079,7.65565319 20.0780079,8.00259196 C20.0780079,8.34953074 20.3868858,8.4237602 20.7350255,8.4237602 L28.4063521,8.4237602 C28.5525708,8.4237602 28.8032774,8.71757814 28.8032774,8.86329243 L28.8032774,27.2556837 C28.8032774,27.401398 28.3455331,27.7452637 28.1993144,27.7452637 L1.71427716,27.7452637 C1.56805849,27.7452637 1.10804838,27.401398 1.10804838,27.2556837 L1.10804838,23.9221985 L26.4239761,23.9221985 C26.7721158,23.9221985 27.0123196,23.8415459 27.0123196,23.4946071 C27.0123196,23.1476684 26.7721158,22.9463571 26.4239761,22.9463571 L22.9838473,22.9463571 C22.7193482,21.1215459 21.2660453,19.9391567 19.3652027,19.9391567 C19.017063,19.9391567 18.8421555,20.1503774 18.8421555,20.4973162 C18.8421555,20.844255 19.1476826,20.9759184 19.4958223,20.9759184 C20.7003856,20.9759184 21.7100778,21.8225357 21.9606513,22.9463571 L18.7915502,22.9463571 C18.5477654,21.0107857 17.0900891,19.4702041 15.1473827,19.2204949 L15.1473827,14.8421276 C15.1473827,14.4951888 15.0604357,14.2106122 14.712296,14.2106122 C14.3641563,14.2106122 14.2766508,14.4951888 14.2766508,14.8421276 L14.2766508,19.2483367 C12.4104481,19.5603214 10.9524745,21.0660357 10.7086897,22.9463571 L7.61042053,22.9463571 C7.86099407,21.8225357 8.87077323,20.9759184 10.0753365,20.9759184 C10.4234762,20.9759184 10.7086897,20.844255 10.7086897,20.4973162 C10.7086897,20.1503774 10.564253,19.9184327 10.2161133,19.9184327 C8.31527066,19.9184327 6.89472742,21.1215459 6.62988015,22.9463571 L0.940064183,22.9463571 C0.8496349,22.8979592 0.74493189,22.863352 0.63370126,22.863352 C0.285561576,22.863352 0,23.1476684 0,23.4946071 L0,27.2485714 C0.00678872384,28.0813112 0.689490645,28.7613112 1.52485182,28.7613112 Z M14.8027253,20.4347806 C16.2999871,20.4347806 17.5532029,21.5173163 17.8109133,22.9395918 L11.8021094,22.9395918 C12.0525959,21.5173163 13.299023,20.4347806 14.8027253,20.4347806 Z" id="Fill-3"></path>
                                                <path d="M0.524825814,21.5724796 C0.872965498,21.5724796 1.00628271,21.28825 1.00628271,20.9413112 L1.00628271,9.06989112 C1.00628271,8.92417683 1.38577001,8.37050378 1.53198868,8.37050378 L9.01699189,8.37050378 C9.36513158,8.37050378 9.65034502,8.23332076 9.65034502,7.88638198 C9.65034502,7.53944321 9.36513158,7.41069898 9.01699189,7.41069898 L1.52485182,7.41069898 C0.682353781,7.41069898 0,8.09069898 0,8.93029082 L0,20.934199 C0.00678872384,21.2950153 0.176686129,21.5724796 0.524825814,21.5724796 Z" id="Fill-4"></path>
                                                <path d="M15.5408685,25.9370561 C15.5408685,26.3395051 15.2137912,26.665801 14.8098622,26.665801 C14.4060201,26.665801 14.0789429,26.3395051 14.0789429,25.9370561 C14.0789429,25.5348673 14.4060201,25.2085714 14.8098622,25.2085714 C15.2137912,25.2085714 15.5408685,25.5348673 15.5408685,25.9370561 Z" id="Fill-5"></path>
                                                <path d="M9.21891291,15.8273469 C9.21891291,16.1742857 9.50412635,16.4588622 9.85226603,16.4588622 L11.1472586,16.4588622 L11.1472586,17.9157449 C11.1472586,18.2626837 11.4539697,18.5473469 11.8021094,18.5473469 C12.1502491,18.5473469 12.2474671,18.2626837 12.2474671,17.9157449 L12.2474671,16.4588622 L12.4983887,16.4588622 C12.8465284,16.4588622 13.1317419,16.2783911 13.1317419,15.9314523 C13.1317419,15.5845135 12.8465284,15.4165667 12.4983887,15.4165667 L10.2274556,15.4165667 L10.2274556,14.4951888 C10.2274556,14.2590102 10.2971706,14.0302908 10.4366006,13.8358316 L11.5586727,12.2051327 C11.8299605,11.8169082 11.9761792,11.3588622 11.9761792,10.8800867 L11.9761792,5.41918367 C11.9761792,4.90554082 12.1641746,4.40612245 12.4983887,4.01755102 L14.8098622,1.16760835 L17.1807687,4.01078571 C17.5221196,4.40612245 17.7097669,4.90554082 17.7097669,5.41918367 L17.7097669,10.9146939 C17.7097669,11.35175 17.8352713,11.7820408 18.0718322,12.1567347 L19.1373137,13.8290663 C19.2556812,14.0164133 19.3182593,14.2244898 19.3182593,14.4463571 L19.3182593,15.4165667 L17.1074971,15.4165667 C16.7593574,15.4165667 16.4740569,15.5845135 16.4740569,15.9314523 C16.4740569,16.2577482 16.7632948,16.4588622 17.2340003,16.4449847 L17.2340003,17.9089796 C17.2340003,18.2559184 17.4276985,18.5404949 17.7758382,18.5404949 C18.1239779,18.5404949 18.2980477,18.2559184 18.2980477,17.9089796 L18.2980477,16.45175 L19.6491779,16.45175 C19.9973175,16.45175 20.282531,16.1671735 20.282531,15.8202347 L20.282531,14.4463571 C20.282531,13.9886582 20.1503249,13.5444898 19.9065401,13.1558316 L18.8413197,11.4835 C18.729828,11.3100306 18.6741256,11.1159184 18.6741256,10.9146939 L18.6741256,5.42594898 C18.6741256,4.60743367 18.3748996,3.81632653 17.8387645,3.19183673 L15.2902949,0.242857143 C15.1719274,0.103994898 14.9978576,0.027755102 14.8098622,0.027755102 C14.6286555,0.027755102 14.4477969,0.111107143 14.3295164,0.249709184 L11.8021094,3.19868878 C11.272763,3.81632653 10.9803256,4.60743367 10.9803256,5.41918367 L10.9803256,10.886852 C10.9803256,11.1020408 10.9177475,11.3171429 10.7923302,11.4906122 L9.65034502,13.1213112 C9.36513158,13.5306122 9.21891291,14.0025357 9.21891291,14.5019541 L9.21891291,15.8273469 Z" id="Fill-6"></path>
                                            </g>
                                        </g>
                                    </g>
                                </g>
                            </g>
                            <g id="experior-venture" mask="url(#mask-2)">
                                <g transform="translate(768.321205, 372.687908)" id="Startup">
                                    <g transform="translate(102.785445, 141.364379)">
                                        <ellipse id="Oval" fill="#FFFFFF" cx="32.1204517" cy="32.128268" rx="32.1204517" ry="32.128268"></ellipse>
                                        <g id="startup-icon" opacity="0.5" transform="translate(13.383522, 10.709423)" fill="#404040">
                                            <g>
                                                <path d="M18.8298253,38.550926 C18.3888484,38.550926 18.195886,38.9103929 18.195886,39.3491684 L18.195886,41.4029668 L11.121328,41.4029668 C10.6803511,41.4029668 10.3190807,41.5363804 10.3190807,41.9751559 C10.3190807,42.4139314 10.6803511,42.5187763 11.121328,42.5187763 L26.5378816,42.5187763 C26.9788585,42.5187763 27.3405699,42.4139314 27.3405699,41.9751559 C27.3405699,41.5363804 26.9788585,41.4029668 26.5378816,41.4029668 L19.4536612,41.4029668 L19.4536612,39.3491684 C19.4536612,38.9018367 19.2708022,38.550926 18.8298253,38.550926 Z" id="Fill-2"></path>
                                                <path d="M1.93147897,36.3745995 L35.7191316,36.3745995 C36.7862958,36.3745995 37.6506106,35.5145995 37.6506106,34.4528724 L37.6506106,11.3117423 C37.6506106,10.2499056 36.7862958,9.38990561 35.7191316,9.38990561 L26.2643657,9.38990561 C25.8233887,9.38990561 25.4321433,9.68214962 25.4321433,10.1209251 C25.4321433,10.5597006 25.8233887,10.6535791 26.2643657,10.6535791 L35.9813794,10.6535791 C36.1665897,10.6535791 36.4841514,11.0251724 36.4841514,11.2094581 L36.4841514,34.4704235 C36.4841514,34.6547092 35.9043419,35.0895983 35.7191316,35.0895983 L2.17141773,35.0895983 C1.98620742,35.0895983 1.40352795,34.6547092 1.40352795,34.4704235 L1.40352795,30.2545452 L33.4703697,30.2545452 C33.9113467,30.2545452 34.2156048,30.1525434 34.2156048,29.7137679 C34.2156048,29.2749923 33.9113467,29.0203929 33.4703697,29.0203929 L29.1128732,29.0203929 C28.777841,26.7125434 26.9369908,25.2171687 24.5292567,25.2171687 C24.0882798,25.2171687 23.8667303,25.4843008 23.8667303,25.9230763 C23.8667303,26.3618519 24.2537313,26.5283673 24.6947083,26.5283673 C26.2204885,26.5283673 27.4994318,27.5990893 27.816825,29.0203929 L23.8026302,29.0203929 C23.4938361,26.5724643 21.6474462,24.6240816 19.1866847,24.308273 L19.1866847,18.770926 C19.1866847,18.3321505 19.0765519,17.9722449 18.635575,17.9722449 C18.194598,17.9722449 18.0837577,18.3321505 18.0837577,18.770926 L18.0837577,24.3434847 C15.7199009,24.7380536 13.8731343,26.6423393 13.5643402,29.0203929 L9.63986601,29.0203929 C9.95725916,27.5990893 11.2363128,26.5283673 12.7620929,26.5283673 C13.2030699,26.5283673 13.5643402,26.3618519 13.5643402,25.9230763 C13.5643402,25.4843008 13.3813872,25.190959 12.9404102,25.190959 C10.5326762,25.190959 8.73332139,26.7125434 8.39784819,29.0203929 L1.19074796,29.0203929 C1.07620421,28.9591837 0.943580393,28.9154158 0.802688263,28.9154158 C0.36171133,28.9154158 0,29.2749923 0,29.7137679 L0,34.4614286 C0.0085990502,35.5145995 0.873354817,36.3745995 1.93147897,36.3745995 Z M18.7501187,25.8439872 C20.6466503,25.8439872 22.234057,27.2130765 22.5604902,29.0118367 L14.9493385,29.0118367 C15.2666214,27.2130765 16.8454291,25.8439872 18.7501187,25.8439872 Z" id="Fill-3"></path>
                                                <path d="M0.664779364,27.2828418 C1.1057563,27.2828418 1.27462477,26.923375 1.27462477,26.4845995 L1.27462477,11.4707446 C1.27462477,11.2864589 1.75530868,10.5862254 1.940519,10.5862254 L11.4215231,10.5862254 C11.8625,10.5862254 12.2237704,10.4127292 12.2237704,9.97395368 C12.2237704,9.53517817 11.8625,9.37235459 11.4215231,9.37235459 L1.93147897,9.37235459 C0.86431479,9.37235459 0,10.2323546 0,11.2941913 L0,26.4756046 C0.0085990502,26.9319311 0.223802431,27.2828418 0.664779364,27.2828418 Z" id="Fill-4"></path>
                                                <path d="M19.6851001,32.8027474 C19.6851001,33.311727 19.2708022,33.7243954 18.7591588,33.7243954 C18.2476255,33.7243954 17.8333277,33.311727 17.8333277,32.8027474 C17.8333277,32.2940969 18.2476255,31.8814286 18.7591588,31.8814286 C19.2708022,31.8814286 19.6851001,32.2940969 19.6851001,32.8027474 Z" id="Fill-5"></path>
                                                <path d="M11.6772897,20.0169388 C11.6772897,20.4557143 12.03856,20.8156199 12.479537,20.8156199 L14.1198609,20.8156199 L14.1198609,22.658148 C14.1198609,23.0969235 14.5083616,23.4569388 14.9493385,23.4569388 C15.3903155,23.4569388 15.5134583,23.0969235 15.5134583,22.658148 L15.5134583,20.8156199 L15.8312924,20.8156199 C16.2722693,20.8156199 16.6335397,20.5873769 16.6335397,20.1486014 C16.6335397,19.7098259 16.2722693,19.4974226 15.8312924,19.4974226 L12.9547772,19.4974226 L12.9547772,18.3321505 C12.9547772,18.0334541 13.0430828,17.7441913 13.219694,17.4982577 L14.6409854,15.4359031 C14.9846167,14.9449133 15.169827,14.3656199 15.169827,13.7601097 L15.169827,6.85367347 C15.169827,6.20406633 15.4079545,5.57244898 15.8312924,5.08102041 L18.7591588,1.47668115 L21.762307,5.07246429 C22.1946849,5.57244898 22.4323714,6.20406633 22.4323714,6.85367347 L22.4323714,13.8038776 C22.4323714,14.356625 22.5913436,14.9008163 22.8909874,15.3746939 L24.2405973,17.4897015 C24.3905295,17.7266403 24.4697951,17.9897959 24.4697951,18.2703929 L24.4697951,19.4974226 L21.6694963,19.4974226 C21.2285193,19.4974226 20.8671387,19.7098259 20.8671387,20.1486014 C20.8671387,20.5612698 21.2335067,20.8156199 21.8297337,20.7980689 L21.8297337,22.6495918 C21.8297337,23.0883673 22.0750848,23.448273 22.5160617,23.448273 C22.9570387,23.448273 23.1775271,23.0883673 23.1775271,22.6495918 L23.1775271,20.806625 L24.8889586,20.806625 C25.3299355,20.806625 25.6912059,20.4467194 25.6912059,20.0079439 L25.6912059,18.2703929 C25.6912059,17.6915383 25.5237449,17.1297959 25.2149508,16.6382577 L23.8656716,14.52325 C23.7244488,14.3038622 23.6538925,14.0583673 23.6538925,13.8038776 L23.6538925,6.86222959 C23.6538925,5.82704847 23.2748728,4.82653061 22.5957683,4.03673469 L19.3677069,0.307142857 C19.2177748,0.131522959 18.9972863,0.0351020408 18.7591588,0.0351020408 C18.5296303,0.0351020408 18.3005427,0.140517857 18.1507208,0.315808673 L14.9493385,4.04540051 C14.2788331,4.82653061 13.9084125,5.82704847 13.9084125,6.85367347 L13.9084125,13.7686658 C13.9084125,14.0408163 13.8291469,14.3128571 13.6702849,14.5322449 L12.2237704,16.5945995 C11.8625,17.1122449 11.6772897,17.7090893 11.6772897,18.3407066 L11.6772897,20.0169388 Z" id="Fill-6"></path>
                                            </g>
                                        </g>
                                    </g>
                                </g>
                            </g>
                            <g id="fb" mask="url(#mask-2)">
                                <g transform="translate(1089.525721, 988.265523)" id="Global">
                                    <g transform="translate(109.209536, 141.364379)">
                                        <ellipse id="Oval" fill="#FFFFFF" cx="25.6963614" cy="25.7026144" rx="25.6963614" ry="25.7026144"></ellipse>
                                        <g id="Global-Companies-Icon" opacity="0.5" transform="translate(11.991635, 8.567538)">
                                            <g>
                                                <mask id="mask-4" fill="white">
                                                    <use xlink:href="#path-3"></use>
                                                </mask>
                                                <g id="Clip-2"></g>
                                                <g id="earth-globe" mask="url(#mask-4)" fill="#404040">
                                                    <g transform="translate(0.636792, 1.924528)" id="Fill-1">
                                                        <path d="M22.3491346,30.9724319 L22.1254713,30.9724319 C21.8857339,29.8116901 20.8438344,28.935894 19.5984719,28.935894 L15.1286449,28.935894 L15.1286449,27.8672207 C16.8276949,27.8096037 18.5447961,27.4571978 20.2052509,26.7783518 C20.3314375,26.7266747 20.4318367,26.6275631 20.4842712,26.5029101 C20.5366198,26.3780024 20.5366198,26.2377358 20.4842712,26.1131676 L20.2209812,25.4859988 C20.1122441,25.2260857 19.8103588,25.1027903 19.5470688,25.2105571 C19.2842086,25.3178996 19.1589675,25.6159129 19.2680485,25.8758261 L19.3301963,26.0236448 C17.9491057,26.5294699 16.5325144,26.7979535 15.1286449,26.8489518 L15.1286449,26.688235 C15.1286449,26.4071079 14.8979331,26.1791005 14.6128957,26.1791005 C14.3282021,26.1791005 14.0971464,26.4071079 14.0971464,26.688235 L14.0971464,26.8473395 C8.96312042,26.6468254 4.1571969,23.5668164 2.06531791,18.5815414 C-0.734340987,11.9090796 2.34803446,4.2551762 8.94266237,1.2679994 L9.00481015,1.41581811 C9.11389112,1.6756464 9.41543252,1.79928122 9.67872252,1.69159928 C9.94192656,1.58383248 10.0668238,1.28590396 9.95774287,1.02633024 L9.6947967,0.399161426 C9.58571573,0.139333134 9.28417433,0.0160377358 9.02088434,0.123380254 C1.5768174,3.16758011 -1.97102175,11.6226914 1.11238519,18.9713687 C3.36853033,24.3484227 8.55817129,27.6660278 14.0971464,27.8669662 L14.0971464,28.935894 L9.62731951,28.935894 C8.38195696,28.935894 7.3400575,29.8116901 7.10057793,30.9724319 L6.87665679,30.9724319 C6.5919632,30.9724319 6.36090753,31.2001847 6.36090753,31.4815663 C6.36090753,31.7626934 6.5919632,31.9907008 6.87665679,31.9907008 L22.3491346,31.9907008 C22.634172,31.9907008 22.8648838,31.7626934 22.8648838,31.4815663 C22.8648838,31.2001847 22.634172,30.9724319 22.3491346,30.9724319 Z M9.62731951,29.9541629 L19.5984719,29.9541629 C20.2710089,29.9541629 20.8441782,30.3797993 21.0570967,30.9724319 L8.16869464,30.9724319 C8.38195696,30.3797993 8.95512631,29.9541629 9.62731951,29.9541629 Z"></path>
                                                    </g>
                                                </g>
                                                <path d="M14.962376,3.8490566 C8.80923186,3.8490566 3.82075472,8.87448543 3.82075472,15.0732084 C3.82075472,21.276458 8.80923186,26.3018868 14.962376,26.3018868 C21.1200134,26.3018868 26.1084906,21.276458 26.1084906,15.0732084 C26.1084906,8.87448543 21.1200134,3.8490566 14.962376,3.8490566 Z M25.3365109,14.6872616 L20.7209028,14.6872616 C20.6795288,12.9686684 20.3745157,11.3285896 19.8376157,9.82518401 C20.8748526,9.38996216 21.837039,8.81128188 22.7126286,8.12209983 C24.268484,9.88237352 25.2460654,12.1689846 25.3365109,14.6872616 Z M14.537893,25.5203115 C13.2601094,24.4482506 12.1853472,23.0553468 11.3992409,21.4385315 C12.4066501,21.1205966 13.4775636,20.9461202 14.579267,20.9121942 L14.579267,25.5241888 C14.563872,25.5241888 14.553288,25.5241888 14.537893,25.5203115 Z M15.3875036,4.62675461 C16.8384807,5.84615125 18.0258187,7.47847553 18.8263578,9.3783304 C17.7285031,9.75733205 16.5632953,9.97736627 15.3499783,10.0151695 L15.3499783,4.62675461 L15.3875036,4.62675461 Z M16.6691358,4.75955059 C18.79653,5.11528872 20.701659,6.11465115 22.1863127,7.5608672 C21.3780761,8.18607454 20.4986377,8.71241188 19.5479976,9.1098305 C18.8456015,7.43970299 17.8641714,5.95956096 16.6691358,4.75955059 Z M14.579267,4.62675461 L14.579267,10.0151695 C13.3649878,9.97348901 12.19978,9.75733205 11.1028875,9.3783304 C11.9034266,7.47847553 13.0869159,5.84615125 14.537893,4.62675461 L14.579267,4.62675461 Z M10.3812477,9.11370775 C9.42964538,8.71241188 8.55020702,8.18607454 7.74293263,7.56474445 C9.22758624,6.11465115 11.1327153,5.11528872 13.2562607,4.75955059 C12.0650739,5.95956096 11.0836438,7.43970299 10.3812477,9.11370775 Z M10.8132694,10.0946532 C11.9967587,10.5075809 13.2639582,10.7499093 14.579267,10.7906205 L14.579267,14.6872616 L9.97905382,14.6872616 C10.0204278,13.0626918 10.3061972,11.5108205 10.8132694,10.0946532 Z M14.579267,15.4636818 L14.579267,20.1357739 C13.3649878,20.1735771 12.1930447,20.3703478 11.0836438,20.7299632 C10.418773,19.1325342 10.0242766,17.348997 9.97905382,15.4636818 L14.579267,15.4636818 Z M13.2562607,25.3913928 C11.3540182,25.0695807 9.62593141,24.2369402 8.22017708,23.0252981 C8.97934215,22.4950835 9.79816277,22.0443526 10.6737524,21.7031542 C11.3434341,23.108659 12.2228725,24.3503499 13.2562607,25.3913928 Z M15.3499783,25.5241888 L15.3499783,20.9121942 C16.4507195,20.9461202 17.5187464,21.1205966 18.5261556,21.4385315 C17.7400493,23.0553468 16.6691358,24.4482506 15.3913523,25.5241888 L15.3499783,25.5241888 Z M19.2545307,21.7031542 C20.1310825,22.0443526 20.9499031,22.4950835 21.7090682,23.0252981 C20.3033139,24.2369402 18.5742649,25.0695807 16.6691358,25.3913928 C17.7063728,24.3503499 18.5819624,23.108659 19.2545307,21.7031542 Z M18.8417527,20.7299632 C17.7362006,20.3703478 16.5632953,20.1735771 15.3499783,20.1357739 L15.3499783,15.4636818 L19.9501915,15.4636818 C19.90112,17.348997 19.5104723,19.1325342 18.8417527,20.7299632 Z M15.3499783,14.6872616 L15.3499783,10.7906205 C16.6652871,10.7499093 17.9276757,10.5104888 19.1159759,10.0946532 C19.6230481,11.5146978 19.9088175,13.0626918 19.9501915,14.6872616 L15.3499783,14.6872616 Z M7.21661667,8.12209983 C8.09220629,8.81128188 9.05439269,9.38996216 10.0916296,9.82518401 C9.55376743,11.3285896 9.24971653,12.9686684 9.20834251,14.6872616 L4.59273436,14.6872616 C4.68317988,12.1689846 5.65691252,9.88237352 7.21661667,8.12209983 Z M4.59273436,15.4636818 L9.20834251,15.4636818 C9.25356527,17.4439897 9.66730542,19.3137959 10.3658527,20.9955552 C9.38827137,21.381342 8.47900522,21.8892624 7.64094087,22.4950835 C5.83299263,20.6814975 4.69472612,18.204901 4.59273436,15.4636818 Z M22.2883044,22.4950835 C21.4502401,21.8892624 20.5400117,21.3774648 19.5633925,20.9955552 C20.2619399,19.3137959 20.6718313,17.4439897 20.7209028,15.4636818 L25.3365109,15.4636818 C25.2345192,18.204901 24.0962527,20.6814975 22.2883044,22.4950835 Z" id="the-world" fill="#404040" mask="url(#mask-4)" transform="translate(14.964623, 15.075472) rotate(-23.000000) translate(-14.964623, -15.075472) "></path>
                                            </g>
                                        </g>
                                    </g>
                                </g>
                            </g>
                            <g id="fb-copy" mask="url(#mask-2)">
                                <g transform="translate(1438.996236, 751.801471)" id="Global">
                                    <g transform="translate(109.209536, 141.364379)">
                                        <ellipse id="Oval" fill="#FFFFFF" cx="25.6963614" cy="25.7026144" rx="25.6963614" ry="25.7026144"></ellipse>
                                        <g id="Global-Companies-Icon" opacity="0.5" transform="translate(11.991635, 8.567538)">
                                            <g>
                                                <mask id="mask-6" fill="white">
                                                    <use xlink:href="#path-5"></use>
                                                </mask>
                                                <g id="Clip-2"></g>
                                                <g id="earth-globe" mask="url(#mask-6)" fill="#404040">
                                                    <g transform="translate(0.636792, 1.924528)" id="Fill-1">
                                                        <path d="M22.3491346,30.9724319 L22.1254713,30.9724319 C21.8857339,29.8116901 20.8438344,28.935894 19.5984719,28.935894 L15.1286449,28.935894 L15.1286449,27.8672207 C16.8276949,27.8096037 18.5447961,27.4571978 20.2052509,26.7783518 C20.3314375,26.7266747 20.4318367,26.6275631 20.4842712,26.5029101 C20.5366198,26.3780024 20.5366198,26.2377358 20.4842712,26.1131676 L20.2209812,25.4859988 C20.1122441,25.2260857 19.8103588,25.1027903 19.5470688,25.2105571 C19.2842086,25.3178996 19.1589675,25.6159129 19.2680485,25.8758261 L19.3301963,26.0236448 C17.9491057,26.5294699 16.5325144,26.7979535 15.1286449,26.8489518 L15.1286449,26.688235 C15.1286449,26.4071079 14.8979331,26.1791005 14.6128957,26.1791005 C14.3282021,26.1791005 14.0971464,26.4071079 14.0971464,26.688235 L14.0971464,26.8473395 C8.96312042,26.6468254 4.1571969,23.5668164 2.06531791,18.5815414 C-0.734340987,11.9090796 2.34803446,4.2551762 8.94266237,1.2679994 L9.00481015,1.41581811 C9.11389112,1.6756464 9.41543252,1.79928122 9.67872252,1.69159928 C9.94192656,1.58383248 10.0668238,1.28590396 9.95774287,1.02633024 L9.6947967,0.399161426 C9.58571573,0.139333134 9.28417433,0.0160377358 9.02088434,0.123380254 C1.5768174,3.16758011 -1.97102175,11.6226914 1.11238519,18.9713687 C3.36853033,24.3484227 8.55817129,27.6660278 14.0971464,27.8669662 L14.0971464,28.935894 L9.62731951,28.935894 C8.38195696,28.935894 7.3400575,29.8116901 7.10057793,30.9724319 L6.87665679,30.9724319 C6.5919632,30.9724319 6.36090753,31.2001847 6.36090753,31.4815663 C6.36090753,31.7626934 6.5919632,31.9907008 6.87665679,31.9907008 L22.3491346,31.9907008 C22.634172,31.9907008 22.8648838,31.7626934 22.8648838,31.4815663 C22.8648838,31.2001847 22.634172,30.9724319 22.3491346,30.9724319 Z M9.62731951,29.9541629 L19.5984719,29.9541629 C20.2710089,29.9541629 20.8441782,30.3797993 21.0570967,30.9724319 L8.16869464,30.9724319 C8.38195696,30.3797993 8.95512631,29.9541629 9.62731951,29.9541629 Z"></path>
                                                    </g>
                                                </g>
                                                <path d="M14.962376,3.8490566 C8.80923186,3.8490566 3.82075472,8.87448543 3.82075472,15.0732084 C3.82075472,21.276458 8.80923186,26.3018868 14.962376,26.3018868 C21.1200134,26.3018868 26.1084906,21.276458 26.1084906,15.0732084 C26.1084906,8.87448543 21.1200134,3.8490566 14.962376,3.8490566 Z M25.3365109,14.6872616 L20.7209028,14.6872616 C20.6795288,12.9686684 20.3745157,11.3285896 19.8376157,9.82518401 C20.8748526,9.38996216 21.837039,8.81128188 22.7126286,8.12209983 C24.268484,9.88237352 25.2460654,12.1689846 25.3365109,14.6872616 Z M14.537893,25.5203115 C13.2601094,24.4482506 12.1853472,23.0553468 11.3992409,21.4385315 C12.4066501,21.1205966 13.4775636,20.9461202 14.579267,20.9121942 L14.579267,25.5241888 C14.563872,25.5241888 14.553288,25.5241888 14.537893,25.5203115 Z M15.3875036,4.62675461 C16.8384807,5.84615125 18.0258187,7.47847553 18.8263578,9.3783304 C17.7285031,9.75733205 16.5632953,9.97736627 15.3499783,10.0151695 L15.3499783,4.62675461 L15.3875036,4.62675461 Z M16.6691358,4.75955059 C18.79653,5.11528872 20.701659,6.11465115 22.1863127,7.5608672 C21.3780761,8.18607454 20.4986377,8.71241188 19.5479976,9.1098305 C18.8456015,7.43970299 17.8641714,5.95956096 16.6691358,4.75955059 Z M14.579267,4.62675461 L14.579267,10.0151695 C13.3649878,9.97348901 12.19978,9.75733205 11.1028875,9.3783304 C11.9034266,7.47847553 13.0869159,5.84615125 14.537893,4.62675461 L14.579267,4.62675461 Z M10.3812477,9.11370775 C9.42964538,8.71241188 8.55020702,8.18607454 7.74293263,7.56474445 C9.22758624,6.11465115 11.1327153,5.11528872 13.2562607,4.75955059 C12.0650739,5.95956096 11.0836438,7.43970299 10.3812477,9.11370775 Z M10.8132694,10.0946532 C11.9967587,10.5075809 13.2639582,10.7499093 14.579267,10.7906205 L14.579267,14.6872616 L9.97905382,14.6872616 C10.0204278,13.0626918 10.3061972,11.5108205 10.8132694,10.0946532 Z M14.579267,15.4636818 L14.579267,20.1357739 C13.3649878,20.1735771 12.1930447,20.3703478 11.0836438,20.7299632 C10.418773,19.1325342 10.0242766,17.348997 9.97905382,15.4636818 L14.579267,15.4636818 Z M13.2562607,25.3913928 C11.3540182,25.0695807 9.62593141,24.2369402 8.22017708,23.0252981 C8.97934215,22.4950835 9.79816277,22.0443526 10.6737524,21.7031542 C11.3434341,23.108659 12.2228725,24.3503499 13.2562607,25.3913928 Z M15.3499783,25.5241888 L15.3499783,20.9121942 C16.4507195,20.9461202 17.5187464,21.1205966 18.5261556,21.4385315 C17.7400493,23.0553468 16.6691358,24.4482506 15.3913523,25.5241888 L15.3499783,25.5241888 Z M19.2545307,21.7031542 C20.1310825,22.0443526 20.9499031,22.4950835 21.7090682,23.0252981 C20.3033139,24.2369402 18.5742649,25.0695807 16.6691358,25.3913928 C17.7063728,24.3503499 18.5819624,23.108659 19.2545307,21.7031542 Z M18.8417527,20.7299632 C17.7362006,20.3703478 16.5632953,20.1735771 15.3499783,20.1357739 L15.3499783,15.4636818 L19.9501915,15.4636818 C19.90112,17.348997 19.5104723,19.1325342 18.8417527,20.7299632 Z M15.3499783,14.6872616 L15.3499783,10.7906205 C16.6652871,10.7499093 17.9276757,10.5104888 19.1159759,10.0946532 C19.6230481,11.5146978 19.9088175,13.0626918 19.9501915,14.6872616 L15.3499783,14.6872616 Z M7.21661667,8.12209983 C8.09220629,8.81128188 9.05439269,9.38996216 10.0916296,9.82518401 C9.55376743,11.3285896 9.24971653,12.9686684 9.20834251,14.6872616 L4.59273436,14.6872616 C4.68317988,12.1689846 5.65691252,9.88237352 7.21661667,8.12209983 Z M4.59273436,15.4636818 L9.20834251,15.4636818 C9.25356527,17.4439897 9.66730542,19.3137959 10.3658527,20.9955552 C9.38827137,21.381342 8.47900522,21.8892624 7.64094087,22.4950835 C5.83299263,20.6814975 4.69472612,18.204901 4.59273436,15.4636818 Z M22.2883044,22.4950835 C21.4502401,21.8892624 20.5400117,21.3774648 19.5633925,20.9955552 C20.2619399,19.3137959 20.6718313,17.4439897 20.7209028,15.4636818 L25.3365109,15.4636818 C25.2345192,18.204901 24.0962527,20.6814975 22.2883044,22.4950835 Z" id="the-world" fill="#404040" mask="url(#mask-6)" transform="translate(14.964623, 15.075472) rotate(-23.000000) translate(-14.964623, -15.075472) "></path>
                                            </g>
                                        </g>
                                    </g>
                                </g>
                            </g>
                        </g>
                    </g>
                </g>
            </g>
        </g>
    </g>
</svg>